<svg width="26" height="26" viewBox="0 0 26 26" fill="none" xmlns="http://www.w3.org/2000/svg">
<path d="M24.8625 3.91239L19.25 0.71239C19.06 0.60268 18.8444 0.544922 18.625 0.544922C18.4056 0.544922 18.19 0.60268 18 0.71239L13 3.56239L8 0.71239C7.80998 0.60268 7.59442 0.544922 7.375 0.544922C7.15558 0.544922 6.94002 0.60268 6.75 0.71239L1.1375 3.91239C0.944417 4.02092 0.78364 4.17881 0.671626 4.36989C0.559611 4.56098 0.500382 4.77839 0.5 4.99989V11.3999C0.500382 11.6214 0.559611 11.8388 0.671626 12.0299C0.78364 12.221 0.944417 12.3789 1.1375 12.4874L6.1375 15.3249V20.9999C6.13788 21.2214 6.19711 21.4388 6.30913 21.6299C6.42114 21.821 6.58192 21.9789 6.775 22.0874L12.4 25.2874C12.59 25.3971 12.8056 25.4549 13.025 25.4549C13.2444 25.4549 13.46 25.3971 13.65 25.2874L19.25 22.0874C19.4431 21.9789 19.6039 21.821 19.7159 21.6299C19.8279 21.4388 19.8871 21.2214 19.8875 20.9999V15.3249L24.8875 12.4874C25.0806 12.3789 25.2414 12.221 25.3534 12.0299C25.4654 11.8388 25.5246 11.6214 25.525 11.3999V4.99989C25.5222 4.77589 25.4592 4.55677 25.3426 4.36545C25.2261 4.17414 25.0602 4.01766 24.8625 3.91239ZM3 10.6749V5.67489L7.375 3.17489L11.75 5.67489V10.6749L7.375 13.1749L3 10.6749ZM17.375 20.2749L13 22.7749L8.625 20.2749V15.2749L13 12.7749L17.375 15.2749V20.2749ZM23 10.6749L18.625 13.1749L14.25 10.6749V5.67489L18.625 3.17489L23 5.67489V10.6749Z" fill="#008CDB"/>
</svg>
