<svg width="26" height="26" viewBox="0 0 26 26" fill="none" xmlns="http://www.w3.org/2000/svg">
<path d="M14.25 10.5H11.75C11.4185 10.5 11.1005 10.6317 10.8661 10.8661C10.6317 11.1005 10.5 11.4185 10.5 11.75C10.5 12.0815 10.6317 12.3995 10.8661 12.6339C11.1005 12.8683 11.4185 13 11.75 13H14.25C14.5815 13 14.8995 12.8683 15.1339 12.6339C15.3683 12.3995 15.5 12.0815 15.5 11.75C15.5 11.4185 15.3683 11.1005 15.1339 10.8661C14.8995 10.6317 14.5815 10.5 14.25 10.5ZM20.5 10.5C20.4964 9.3943 20.1264 8.32098 19.4479 7.44795C18.7694 6.57492 17.8206 5.95142 16.75 5.675V4.25C16.75 3.25544 16.3549 2.30161 15.6517 1.59835C14.9484 0.895088 13.9946 0.5 13 0.5C12.0054 0.5 11.0516 0.895088 10.3483 1.59835C9.64509 2.30161 9.25 3.25544 9.25 4.25V5.675C8.17941 5.95142 7.23063 6.57492 6.55211 7.44795C5.87359 8.32098 5.50359 9.3943 5.5 10.5C4.17392 10.5 2.90215 11.0268 1.96447 11.9645C1.02678 12.9021 0.5 14.1739 0.5 15.5V19.25C0.5 20.2446 0.895088 21.1984 1.59835 21.9017C2.30161 22.6049 3.25544 23 4.25 23H5.725C5.98289 23.7294 6.46009 24.3613 7.09117 24.8088C7.72225 25.2564 8.47632 25.4978 9.25 25.5H16.75C17.5237 25.4978 18.2778 25.2564 18.9088 24.8088C19.5399 24.3613 20.0171 23.7294 20.275 23H21.75C22.7446 23 23.6984 22.6049 24.4017 21.9017C25.1049 21.1984 25.5 20.2446 25.5 19.25V15.5C25.5 14.1739 24.9732 12.9021 24.0355 11.9645C23.0979 11.0268 21.8261 10.5 20.5 10.5ZM5.5 20.5H4.25C3.91848 20.5 3.60054 20.3683 3.36612 20.1339C3.1317 19.8995 3 19.5815 3 19.25V15.5C3 14.837 3.26339 14.2011 3.73223 13.7322C4.20107 13.2634 4.83696 13 5.5 13V20.5ZM11.75 4.25C11.75 3.91848 11.8817 3.60054 12.1161 3.36612C12.3505 3.1317 12.6685 3 13 3C13.3315 3 13.6495 3.1317 13.8839 3.36612C14.1183 3.60054 14.25 3.91848 14.25 4.25V5.5H11.75V4.25ZM18 21.75C18 22.0815 17.8683 22.3995 17.6339 22.6339C17.3995 22.8683 17.0815 23 16.75 23H9.25C8.91848 23 8.60054 22.8683 8.36612 22.6339C8.1317 22.3995 8 22.0815 8 21.75V20.5C8 19.837 8.26339 19.2011 8.73223 18.7322C9.20107 18.2634 9.83696 18 10.5 18H15.5C16.163 18 16.7989 18.2634 17.2678 18.7322C17.7366 19.2011 18 19.837 18 20.5V21.75ZM18 16.2C17.245 15.7456 16.3812 15.5037 15.5 15.5H10.5C9.6188 15.5037 8.75499 15.7456 8 16.2V10.5C8 9.83696 8.26339 9.20107 8.73223 8.73223C9.20107 8.26339 9.83696 8 10.5 8H15.5C16.163 8 16.7989 8.26339 17.2678 8.73223C17.7366 9.20107 18 9.83696 18 10.5V16.2ZM23 19.25C23 19.5815 22.8683 19.8995 22.6339 20.1339C22.3995 20.3683 22.0815 20.5 21.75 20.5H20.5V13C21.163 13 21.7989 13.2634 22.2678 13.7322C22.7366 14.2011 23 14.837 23 15.5V19.25Z" fill="#FF9900"/>
</svg>
