<svg width="26" height="26" viewBox="0 0 26 26" fill="none" xmlns="http://www.w3.org/2000/svg">
<path fill-rule="evenodd" clip-rule="evenodd" d="M7.94523 1.75C7.94523 1.19772 7.49751 0.75 6.94523 0.75C6.39294 0.75 5.94523 1.19772 5.94523 1.75V5.21336V8.67676C5.94523 9.22904 6.39294 9.67676 6.94523 9.67676C7.49751 9.67676 7.94523 9.22904 7.94523 8.67676V6.21336H15.6037C16.156 6.21336 16.6037 5.76564 16.6037 5.21336C16.6037 4.66107 16.156 4.21336 15.6037 4.21336H7.94523V1.75ZM3.48169 4.21336C2.7572 4.21336 2.06238 4.50116 1.55009 5.01345C1.0378 5.52574 0.75 6.22056 0.75 6.94505V12.1401V22.5303C0.75 23.2547 1.0378 23.9496 1.55009 24.4619C2.06238 24.9741 2.7572 25.2619 3.48169 25.2619H22.5303C23.2548 25.2619 23.9496 24.9741 24.4619 24.4619C24.9742 23.9496 25.262 23.2547 25.262 22.5303V12.1401V6.94505C25.262 6.22056 24.9742 5.52574 24.4619 5.01345C23.9496 4.50116 23.2548 4.21336 22.5303 4.21336H20.0664V1.75C20.0664 1.19772 19.6187 0.75 19.0664 0.75C18.5141 0.75 18.0664 1.19772 18.0664 1.75V8.67676C18.0664 9.22904 18.5141 9.67676 19.0664 9.67676C19.6187 9.67676 20.0664 9.22904 20.0664 8.67676V6.21336H22.5303C22.7243 6.21336 22.9104 6.29045 23.0476 6.42766C23.1849 6.56488 23.262 6.75099 23.262 6.94505V11.1401H2.75V6.94505C2.75 6.75099 2.82709 6.56488 2.96431 6.42766C3.10153 6.29045 3.28763 6.21336 3.48169 6.21336C4.03397 6.21336 4.48169 5.76564 4.48169 5.21336C4.48169 4.66107 4.03397 4.21336 3.48169 4.21336ZM2.75 13.1401V22.5303C2.75 22.7243 2.82709 22.9104 2.96431 23.0476C3.10153 23.1849 3.28763 23.2619 3.48169 23.2619H22.5303C22.7243 23.2619 22.9104 23.1849 23.0476 23.0476C23.1849 22.9104 23.262 22.7243 23.262 22.5303V13.1401H2.75ZM7.67676 18.2012C7.67676 17.6489 8.12447 17.2012 8.67676 17.2012H17.3352C17.8875 17.2012 18.3352 17.6489 18.3352 18.2012C18.3352 18.7535 17.8875 19.2012 17.3352 19.2012H8.67676C8.12447 19.2012 7.67676 18.7535 7.67676 18.2012Z" fill="#008CDB"/>
</svg>
