<svg width="14" height="26" viewBox="0 0 14 26" fill="none" xmlns="http://www.w3.org/2000/svg">
<path d="M4.7625 5.76213L5.75 4.76213V7.99963C5.75 8.33115 5.8817 8.64909 6.11612 8.88351C6.35054 9.11793 6.66848 9.24963 7 9.24963C7.33152 9.24963 7.64946 9.11793 7.88388 8.88351C8.1183 8.64909 8.25 8.33115 8.25 7.99963V4.76213L9.2375 5.76213C9.3537 5.87929 9.49195 5.97228 9.64428 6.03574C9.7966 6.0992 9.95998 6.13187 10.125 6.13187C10.29 6.13187 10.4534 6.0992 10.6057 6.03574C10.758 5.97228 10.8963 5.87929 11.0125 5.76213C11.1297 5.64592 11.2227 5.50767 11.2861 5.35535C11.3496 5.20302 11.3822 5.03964 11.3822 4.87463C11.3822 4.70961 11.3496 4.54623 11.2861 4.39391C11.2227 4.24158 11.1297 4.10333 11.0125 3.98713L7.8875 0.862126C7.76862 0.748326 7.62844 0.659119 7.475 0.599626C7.17067 0.474604 6.82933 0.474604 6.525 0.599626C6.37156 0.659119 6.23138 0.748326 6.1125 0.862126L2.9875 3.98713C2.75212 4.22251 2.61989 4.54175 2.61989 4.87463C2.61989 5.2075 2.75212 5.52675 2.9875 5.76213C3.22288 5.99751 3.54212 6.12974 3.875 6.12974C4.20788 6.12974 4.52712 5.99751 4.7625 5.76213ZM12 11.7496H2C1.66848 11.7496 1.35054 11.8813 1.11612 12.1157C0.881696 12.3502 0.75 12.6681 0.75 12.9996C0.75 13.3311 0.881696 13.6491 1.11612 13.8835C1.35054 14.1179 1.66848 14.2496 2 14.2496H12C12.3315 14.2496 12.6495 14.1179 12.8839 13.8835C13.1183 13.6491 13.25 13.3311 13.25 12.9996C13.25 12.6681 13.1183 12.3502 12.8839 12.1157C12.6495 11.8813 12.3315 11.7496 12 11.7496ZM9.2375 20.2371L8.25 21.2371V17.9996C8.25 17.6681 8.1183 17.3502 7.88388 17.1157C7.64946 16.8813 7.33152 16.7496 7 16.7496C6.66848 16.7496 6.35054 16.8813 6.11612 17.1157C5.8817 17.3502 5.75 17.6681 5.75 17.9996V21.2371L4.7625 20.2371C4.64595 20.1206 4.50759 20.0281 4.35531 19.9651C4.20303 19.902 4.03982 19.8695 3.875 19.8695C3.71018 19.8695 3.54697 19.902 3.39469 19.9651C3.24241 20.0281 3.10405 20.1206 2.9875 20.2371C2.87095 20.3537 2.7785 20.492 2.71543 20.6443C2.65235 20.7966 2.61989 20.9598 2.61989 21.1246C2.61989 21.2895 2.65235 21.4527 2.71543 21.6049C2.7785 21.7572 2.87095 21.8956 2.9875 22.0121L6.1125 25.1371C6.23138 25.2509 6.37156 25.3401 6.525 25.3996C6.67463 25.4658 6.83641 25.4999 7 25.4999C7.16359 25.4999 7.32537 25.4658 7.475 25.3996C7.62844 25.3401 7.76862 25.2509 7.8875 25.1371L11.0125 22.0121C11.2479 21.7767 11.3801 21.4575 11.3801 21.1246C11.3801 20.7917 11.2479 20.4725 11.0125 20.2371C10.7771 20.0017 10.4579 19.8695 10.125 19.8695C9.79212 19.8695 9.47288 20.0017 9.2375 20.2371Z" fill="#25BA00"/>
</svg>
