<svg width="78" height="55" viewBox="0 0 78 55" fill="none" xmlns="http://www.w3.org/2000/svg">
<path d="M68.1337 29.4604C70.6495 29.4604 72.689 27.3323 72.689 24.7071C72.689 22.0819 70.6495 19.9538 68.1337 19.9538C65.6179 19.9538 63.5784 22.0819 63.5784 24.7071C63.5784 27.3323 65.6179 29.4604 68.1337 29.4604Z" fill="#2D2D2D"/>
<path d="M74.5166 16.4205C76.4404 16.4205 78 14.7931 78 12.7856C78 10.7782 76.4404 9.15076 74.5166 9.15076C72.5927 9.15076 71.0331 10.7782 71.0331 12.7856C71.0331 14.7931 72.5927 16.4205 74.5166 16.4205Z" fill="#25BA00"/>
<path d="M63.5787 16.1918C65.1393 16.1918 66.4044 14.8717 66.4044 13.2432C66.4044 11.6148 65.1393 10.2946 63.5787 10.2946C62.018 10.2946 60.7529 11.6148 60.7529 13.2432C60.7529 14.8717 62.018 16.1918 63.5787 16.1918Z" fill="#25BA00"/>
<path d="M55.4428 17.5898C55.4428 7.42229 52.1785 5.46505 50.5708 5.46505C49.6939 5.46505 47.5258 9.5829 45.6989 10.5488C44.6956 10.88 43.6301 10.9513 42.5945 10.7564C41.5588 10.5615 40.5843 10.1064 39.7551 9.43038C39.7551 8.74407 44.627 6.25303 44.8219 4.93125C45.0168 3.60947 42.5808 0 40.9487 0C39.9012 0 37.3678 3.02484 34.5177 5.08376C27.5163 9.14906 20.1068 12.3969 12.4234 14.7683C5.89501 16.4714 0 18.8287 8.70723e-10 21.8535C1.74158e-09 24.8784 5.16422 28.1641 10.5477 28.1641H27.5996L15.5171 16.5476H19.6583L31.6676 28.1641H48.7195C56.539 28.1641 55.4428 23.004 55.4428 17.5898ZM34.8588 25.9018L22.8981 14.2854H27.0393L38.9756 25.9018H34.8588ZM42.6295 23.792L30.6932 12.1756H34.81L46.7463 23.792H42.6295Z" fill="#25BA00"/>
<path d="M18.7322 33.985L19.0976 30.3501C19.1011 30.3214 19.0986 30.2922 19.0904 30.2645C19.0822 30.2368 19.0684 30.2113 19.0499 30.1896C19.0315 30.1679 19.0088 30.1506 18.9834 30.1389C18.958 30.1271 18.9305 30.1211 18.9028 30.1213H14.0308C14.002 30.1213 13.9735 30.1273 13.9469 30.1388C13.9203 30.1503 13.8961 30.1671 13.8758 30.1883C13.8554 30.2096 13.8393 30.2348 13.8283 30.2626C13.8172 30.2903 13.8116 30.3201 13.8116 30.3501L14.177 33.985C14.1882 34.0365 14.2162 34.0824 14.2561 34.1148C14.2961 34.1473 14.3456 34.1643 14.3962 34.1629H18.4643C18.4931 34.1751 18.5243 34.18 18.5552 34.1771C18.5862 34.1741 18.616 34.1635 18.6422 34.1461C18.6685 34.1287 18.6903 34.105 18.706 34.0769C18.7216 34.0489 18.7306 34.0174 18.7322 33.985Z" fill="#25BA00"/>
<path d="M52.3735 33.1207L52.7389 29.4858C52.7389 29.4558 52.7332 29.426 52.7222 29.3983C52.7112 29.3705 52.695 29.3453 52.6747 29.3241C52.6543 29.3028 52.6301 29.286 52.6035 29.2745C52.5769 29.263 52.5484 29.2571 52.5196 29.2571H47.6477C47.6199 29.2568 47.5924 29.2628 47.567 29.2746C47.5416 29.2863 47.519 29.3036 47.5005 29.3253C47.4821 29.347 47.4682 29.3725 47.46 29.4002C47.4518 29.4279 47.4493 29.4571 47.4528 29.4858L47.8182 33.1207C47.8286 33.1749 47.8556 33.224 47.8952 33.2607C47.9348 33.2974 47.9847 33.3196 48.0374 33.3241H52.0812C52.1132 33.3315 52.1463 33.332 52.1786 33.3257C52.2108 33.3194 52.2415 33.3064 52.2688 33.2874C52.2961 33.2684 52.3195 33.2438 52.3375 33.2152C52.3554 33.1865 52.3677 33.1544 52.3735 33.1207Z" fill="#25BA00"/>
<path d="M43.8475 33.3495L44.1886 29.7655C44.1889 29.7022 44.1666 29.6412 44.126 29.5942C44.0855 29.5472 44.0296 29.5176 43.9693 29.5113H39.0974C39.0526 29.5331 39.0162 29.5701 38.994 29.6163C38.9719 29.6624 38.9654 29.715 38.9756 29.7655L39.341 33.4004C39.3469 33.4498 39.3701 33.4952 39.406 33.528C39.4419 33.5608 39.4881 33.5787 39.5358 33.5783H43.6039C43.6347 33.5819 43.6658 33.5786 43.6953 33.5688C43.7248 33.5589 43.7519 33.5426 43.7749 33.521C43.798 33.4994 43.8163 33.4729 43.8288 33.4434C43.8413 33.4138 43.8477 33.3818 43.8475 33.3495Z" fill="#25BA00"/>
<path d="M11.5466 33.985L11.912 30.3501C11.912 30.3201 11.9063 30.2903 11.8953 30.2626C11.8843 30.2348 11.8682 30.2096 11.8478 30.1883C11.8274 30.1671 11.8033 30.1502 11.7767 30.1388C11.7501 30.1273 11.7216 30.1213 11.6928 30.1213H6.82082C6.79203 30.1213 6.76353 30.1273 6.73693 30.1388C6.71033 30.1502 6.68616 30.1671 6.6658 30.1883C6.64544 30.2096 6.62929 30.2348 6.61827 30.2626C6.60726 30.2903 6.60159 30.3201 6.60159 30.3501L6.96699 33.985C6.97822 34.0365 7.00619 34.0824 7.04616 34.1148C7.08612 34.1472 7.13561 34.1642 7.18622 34.1629H11.2299C11.2615 34.1795 11.2964 34.188 11.3317 34.1875C11.367 34.187 11.4017 34.1776 11.4328 34.1602C11.4639 34.1427 11.4905 34.1176 11.5103 34.0871C11.5301 34.0566 11.5426 34.0216 11.5466 33.985Z" fill="#25BA00"/>
<path d="M1.62 52V39.4H10.998V41.416H3.834V44.854H10.188V46.87H3.834V52H1.62ZM18.3348 52.216C16.8948 52.216 15.6948 51.736 14.7348 50.776C13.7748 49.816 13.2948 48.646 13.2948 47.266C13.2948 45.886 13.7808 44.716 14.7528 43.756C15.7248 42.784 16.9308 42.298 18.3708 42.298C19.8108 42.298 21.0108 42.778 21.9708 43.738C22.9428 44.698 23.4288 45.874 23.4288 47.266C23.4288 48.634 22.9428 49.804 21.9708 50.776C20.9988 51.736 19.7868 52.216 18.3348 52.216ZM18.3708 50.326C19.2348 50.326 19.9308 50.032 20.4588 49.444C20.9868 48.856 21.2508 48.13 21.2508 47.266C21.2508 46.414 20.9748 45.694 20.4228 45.106C19.8708 44.506 19.1748 44.206 18.3348 44.206C17.4828 44.206 16.7928 44.5 16.2648 45.088C15.7368 45.676 15.4728 46.402 15.4728 47.266C15.4728 48.106 15.7488 48.826 16.3008 49.426C16.8528 50.026 17.5428 50.326 18.3708 50.326ZM31.0649 52.216C29.6249 52.216 28.4249 51.736 27.4649 50.776C26.5049 49.816 26.0249 48.646 26.0249 47.266C26.0249 45.886 26.5109 44.716 27.4829 43.756C28.4549 42.784 29.6609 42.298 31.1009 42.298C32.5409 42.298 33.7409 42.778 34.7009 43.738C35.6729 44.698 36.1589 45.874 36.1589 47.266C36.1589 48.634 35.6729 49.804 34.7009 50.776C33.7289 51.736 32.5169 52.216 31.0649 52.216ZM31.1009 50.326C31.9649 50.326 32.6609 50.032 33.1889 49.444C33.7169 48.856 33.9809 48.13 33.9809 47.266C33.9809 46.414 33.7049 45.694 33.1529 45.106C32.6009 44.506 31.9049 44.206 31.0649 44.206C30.2129 44.206 29.5229 44.5 28.9949 45.088C28.4669 45.676 28.2029 46.402 28.2029 47.266C28.2029 48.106 28.4789 48.826 29.0309 49.426C29.5829 50.026 30.2729 50.326 31.1009 50.326ZM42.463 52.162C40.639 52.162 39.727 51.232 39.727 49.372V44.368H38.521V42.496H39.727V39.886H41.905V42.496H44.461V44.368H41.905V49.03C41.905 49.822 42.295 50.218 43.075 50.218C43.543 50.218 43.993 50.11 44.425 49.894V51.676C43.849 52 43.195 52.162 42.463 52.162Z" fill="#2D2D2D"/>
<path d="M47.5598 52V42.496H49.7378V43.936C50.5298 42.844 51.4958 42.298 52.6358 42.298C53.9558 42.298 54.8978 42.856 55.4618 43.972C56.3138 42.856 57.3878 42.298 58.6838 42.298C59.7278 42.298 60.5438 42.616 61.1318 43.252C61.7198 43.888 62.0138 44.782 62.0138 45.934V52H59.8358V46.6C59.8358 45.844 59.6678 45.268 59.3318 44.872C58.9958 44.476 58.5218 44.278 57.9098 44.278C57.2978 44.278 56.8058 44.488 56.4338 44.908C56.0618 45.316 55.8758 45.892 55.8758 46.636V52H53.6978V46.582C53.6978 45.85 53.5298 45.286 53.1938 44.89C52.8578 44.482 52.3838 44.278 51.7718 44.278C51.1598 44.278 50.6678 44.494 50.2958 44.926C49.9238 45.346 49.7378 45.922 49.7378 46.654V52H47.5598ZM69.9193 52.216C68.5273 52.216 67.3633 51.754 66.4273 50.83C65.5033 49.906 65.0413 48.712 65.0413 47.248C65.0413 45.868 65.4793 44.698 66.3553 43.738C67.2313 42.778 68.3413 42.298 69.6853 42.298C71.1253 42.298 72.2413 42.79 73.0333 43.774C73.8373 44.746 74.2393 45.958 74.2393 47.41C74.2393 47.674 74.2273 47.878 74.2033 48.022H67.2193C67.3393 48.778 67.6453 49.372 68.1373 49.804C68.6293 50.224 69.2353 50.434 69.9553 50.434C70.8913 50.434 71.7493 50.056 72.5293 49.3L73.8073 50.434C72.8233 51.622 71.5273 52.216 69.9193 52.216ZM67.2013 46.582H72.0793C72.0073 45.85 71.7613 45.25 71.3413 44.782C70.9213 44.314 70.3633 44.08 69.6673 44.08C69.0073 44.08 68.4553 44.314 68.0113 44.782C67.5673 45.238 67.2973 45.838 67.2013 46.582Z" fill="#25BA00"/>
</svg>
