<svg width="26" height="24" viewBox="0 0 26 24" fill="none" xmlns="http://www.w3.org/2000/svg">
<path d="M14.25 0.75C11.9294 0.75 9.70376 1.67187 8.06282 3.31282C6.42187 4.95376 5.5 7.17936 5.5 9.5C5.5 11.8206 6.42187 14.0462 8.06282 15.6872C9.70376 17.3281 11.9294 18.25 14.25 18.25C15.9076 18.25 17.4973 17.5915 18.6694 16.4194C19.8415 15.2473 20.5 13.6576 20.5 12C20.5 10.3424 19.8415 8.75268 18.6694 7.58058C17.4973 6.40848 15.9076 5.75 14.25 5.75C13.2554 5.75 12.3016 6.14509 11.5983 6.84835C10.8951 7.55161 10.5 8.50544 10.5 9.5C10.5 10.4946 10.8951 11.4484 11.5983 12.1517C12.3016 12.8549 13.2554 13.25 14.25 13.25C14.5815 13.25 14.8995 13.1183 15.1339 12.8839C15.3683 12.6495 15.5 12.3315 15.5 12C15.5 11.6685 15.3683 11.3505 15.1339 11.1161C14.8995 10.8817 14.5815 10.75 14.25 10.75C13.9185 10.75 13.6005 10.6183 13.3661 10.3839C13.1317 10.1495 13 9.83152 13 9.5C13 9.16848 13.1317 8.85054 13.3661 8.61612C13.6005 8.3817 13.9185 8.25 14.25 8.25C15.2446 8.25 16.1984 8.64509 16.9017 9.34835C17.6049 10.0516 18 11.0054 18 12C18 12.9946 17.6049 13.9484 16.9017 14.6517C16.1984 15.3549 15.2446 15.75 14.25 15.75C12.5924 15.75 11.0027 15.0915 9.83058 13.9194C8.65848 12.7473 8 11.1576 8 9.5C8 7.8424 8.65848 6.25269 9.83058 5.08058C11.0027 3.90848 12.5924 3.25 14.25 3.25C16.5706 3.25 18.7962 4.17187 20.4372 5.81282C22.0781 7.45376 23 9.67936 23 12C23 14.3206 22.0781 16.5462 20.4372 18.1872C18.7962 19.8281 16.5706 20.75 14.25 20.75C11.2663 20.75 8.40483 19.5647 6.29505 17.455C4.18526 15.3452 3 12.4837 3 9.5C3 9.16848 2.8683 8.85054 2.63388 8.61612C2.39946 8.3817 2.08152 8.25 1.75 8.25C1.41848 8.25 1.10054 8.3817 0.866116 8.61612C0.631696 8.85054 0.5 9.16848 0.5 9.5C0.5 13.1467 1.94866 16.6441 4.52728 19.2227C7.10591 21.8013 10.6033 23.25 14.25 23.25C17.2337 23.25 20.0952 22.0647 22.205 19.955C24.3147 17.8452 25.5 14.9837 25.5 12C25.5 9.01631 24.3147 6.15483 22.205 4.04505C20.0952 1.93526 17.2337 0.75 14.25 0.75Z" fill="#EB0000"/>
</svg>
