<svg width="10" height="18" viewBox="0 0 10 18" fill="none" xmlns="http://www.w3.org/2000/svg">
<path d="M9.42501 8.11248L2.35001 1.04998C2.2338 0.932824 2.09555 0.839832 1.94323 0.776371C1.7909 0.71291 1.62752 0.680237 1.46251 0.680237C1.29749 0.680237 1.13411 0.71291 0.981787 0.776371C0.829463 0.839832 0.691212 0.932824 0.575008 1.04998C0.342194 1.28419 0.211517 1.601 0.211517 1.93123C0.211517 2.26147 0.342194 2.57828 0.575008 2.81249L6.76251 9.06248L0.575008 15.25C0.342194 15.4842 0.211517 15.801 0.211517 16.1312C0.211517 16.4615 0.342194 16.7783 0.575008 17.0125C0.690776 17.1306 0.828833 17.2246 0.981177 17.2889C1.13352 17.3533 1.29712 17.3868 1.46251 17.3875C1.62789 17.3868 1.7915 17.3533 1.94384 17.2889C2.09618 17.2246 2.23424 17.1306 2.35001 17.0125L9.42501 9.94999C9.55189 9.83293 9.65315 9.69087 9.72241 9.53274C9.79167 9.37462 9.82743 9.20386 9.82743 9.03123C9.82743 8.85861 9.79167 8.68785 9.72241 8.52973C9.65315 8.3716 9.55189 8.22954 9.42501 8.11248Z" fill="#25BA00"/>
</svg>
