<svg width="21" height="20" viewBox="0 0 21 20" fill="none" xmlns="http://www.w3.org/2000/svg">
<path d="M18.4406 11C18.2206 11 17.9906 10.93 17.7706 10.88C17.3251 10.7818 16.8873 10.6515 16.4606 10.49C15.9967 10.3212 15.4867 10.33 15.0289 10.5146C14.5711 10.6992 14.1977 11.0466 13.9806 11.49L13.7606 11.94C12.7866 11.3982 11.8916 10.7252 11.1006 9.93999C10.3154 9.14901 9.64241 8.25399 9.10059 7.27999L9.52059 6.99999C9.96395 6.78291 10.3114 6.40952 10.496 5.95168C10.6806 5.49384 10.6894 4.9839 10.5206 4.51999C10.3618 4.09241 10.2315 3.65479 10.1306 3.20999C10.0806 2.98999 10.0406 2.75999 10.0106 2.52999C9.88915 1.82561 9.52021 1.18773 8.97021 0.731229C8.42021 0.274727 7.72529 0.029599 7.01059 0.0399902H4.01059C3.57962 0.0359436 3.15284 0.124804 2.7593 0.300521C2.36576 0.476238 2.0147 0.734686 1.73002 1.05827C1.44534 1.38186 1.23372 1.76298 1.10958 2.1757C0.985431 2.58842 0.951668 3.02305 1.01059 3.44999C1.54333 7.63937 3.45662 11.5319 6.44824 14.5126C9.43987 17.4934 13.3393 19.3925 17.5306 19.91H17.9106C18.648 19.9111 19.36 19.6405 19.9106 19.15C20.227 18.867 20.4797 18.5202 20.6521 18.1323C20.8244 17.7444 20.9126 17.3244 20.9106 16.9V13.9C20.8983 13.2054 20.6454 12.5365 20.1949 12.0077C19.7445 11.4788 19.1244 11.1226 18.4406 11ZM18.9406 17C18.9404 17.142 18.91 17.2823 18.8514 17.4116C18.7927 17.5409 18.7073 17.6563 18.6006 17.75C18.4892 17.847 18.3586 17.9194 18.2173 17.9625C18.076 18.0056 17.9272 18.0183 17.7806 18C14.0355 17.5198 10.5568 15.8065 7.89331 13.1303C5.22978 10.4541 3.533 6.96733 3.07059 3.21999C3.05467 3.07351 3.06862 2.92532 3.11159 2.78438C3.15456 2.64344 3.22566 2.51268 3.32059 2.39999C3.4143 2.29332 3.52965 2.20783 3.65897 2.14921C3.78829 2.09058 3.9286 2.06017 4.07059 2.05999H7.07059C7.30314 2.05482 7.53021 2.13087 7.71273 2.27506C7.89525 2.41925 8.0218 2.62256 8.07059 2.84999C8.11059 3.12332 8.16059 3.39332 8.22059 3.65999C8.33611 4.18713 8.48985 4.70517 8.68059 5.20999L7.28059 5.85999C7.16089 5.91491 7.05321 5.99294 6.96375 6.08959C6.87428 6.18623 6.80479 6.2996 6.75926 6.42318C6.71373 6.54677 6.69306 6.67812 6.69844 6.80971C6.70381 6.9413 6.73513 7.07054 6.79059 7.18999C8.22979 10.2727 10.7078 12.7508 13.7906 14.19C14.0341 14.29 14.3071 14.29 14.5506 14.19C14.6753 14.1454 14.7899 14.0764 14.8878 13.9872C14.9856 13.8979 15.0648 13.7901 15.1206 13.67L15.7406 12.27C16.2576 12.4549 16.7852 12.6085 17.3206 12.73C17.5873 12.79 17.8573 12.84 18.1306 12.88C18.358 12.9288 18.5613 13.0553 18.7055 13.2378C18.8497 13.4204 18.9258 13.6474 18.9206 13.88L18.9406 17Z" fill="#25BA00"/>
</svg>
