<svg width="26" height="26" viewBox="0 0 26 26" fill="none" xmlns="http://www.w3.org/2000/svg">
<path d="M13 0.5C10.5277 0.5 8.11099 1.23311 6.05538 2.60663C3.99976 3.98015 2.39761 5.93238 1.45151 8.21646C0.505416 10.5005 0.257874 13.0139 0.74019 15.4386C1.2225 17.8634 2.41301 20.0907 4.16117 21.8388C5.90933 23.587 8.13661 24.7775 10.5614 25.2598C12.9861 25.7421 15.4995 25.4946 17.7836 24.5485C20.0676 23.6024 22.0199 22.0002 23.3934 19.9446C24.7669 17.889 25.5 15.4723 25.5 13C25.5 11.3585 25.1767 9.73303 24.5485 8.21646C23.9203 6.69989 22.9996 5.3219 21.8388 4.16117C20.6781 3.00043 19.3001 2.07969 17.7836 1.45151C16.267 0.823322 14.6415 0.5 13 0.5ZM13 23C11.0222 23 9.08879 22.4135 7.4443 21.3147C5.79981 20.2159 4.51809 18.6541 3.76121 16.8268C3.00433 14.9996 2.8063 12.9889 3.19215 11.0491C3.57801 9.10929 4.53041 7.32746 5.92894 5.92893C7.32746 4.53041 9.10929 3.578 11.0491 3.19215C12.9889 2.8063 14.9996 3.00433 16.8268 3.7612C18.6541 4.51808 20.2159 5.79981 21.3147 7.4443C22.4135 9.08879 23 11.0222 23 13C23 15.6522 21.9464 18.1957 20.0711 20.0711C18.1957 21.9464 15.6522 23 13 23ZM16.875 13.7875L14.25 12.275V6.75C14.25 6.41848 14.1183 6.10054 13.8839 5.86612C13.6495 5.6317 13.3315 5.5 13 5.5C12.6685 5.5 12.3505 5.6317 12.1161 5.86612C11.8817 6.10054 11.75 6.41848 11.75 6.75V13C11.75 13 11.75 13.1 11.75 13.15C11.7574 13.2361 11.7785 13.3205 11.8125 13.4C11.8382 13.4742 11.8718 13.5454 11.9125 13.6125C11.9467 13.6835 11.9886 13.7506 12.0375 13.8125L12.2375 13.975L12.35 14.0875L15.6 15.9625C15.7905 16.0705 16.006 16.1265 16.225 16.125C16.5018 16.1269 16.7714 16.037 16.9915 15.8692C17.2116 15.7014 17.3698 15.4653 17.4413 15.1979C17.5128 14.9305 17.4935 14.647 17.3865 14.3917C17.2795 14.1365 17.0908 13.924 16.85 13.7875H16.875Z" fill="#FF9900"/>
</svg>
