<svg width="24" height="26" viewBox="0 0 24 26" fill="none" xmlns="http://www.w3.org/2000/svg">
<path d="M23.0876 19.5625L19.7001 13.7125C20.3933 12.4394 20.7544 11.0121 20.7501 9.5625C20.7501 7.24186 19.8282 5.01626 18.1873 3.37532C16.5463 1.73437 14.3207 0.8125 12.0001 0.8125C9.67945 0.8125 7.45385 1.73437 5.81291 3.37532C4.17196 5.01626 3.25009 7.24186 3.25009 9.5625C3.24579 11.0121 3.60691 12.4394 4.30009 13.7125L0.912591 19.5625C0.802668 19.7529 0.744901 19.9689 0.745118 20.1887C0.745335 20.4086 0.803529 20.6245 0.913828 20.8147C1.02413 21.0048 1.18263 21.1625 1.37335 21.2719C1.56407 21.3813 1.78025 21.4384 2.00009 21.4375H5.58759L7.41259 24.5125C7.47411 24.6144 7.54988 24.707 7.63759 24.7875C7.86931 25.0109 8.17825 25.1362 8.50009 25.1375H8.67509C8.8638 25.1117 9.04412 25.0431 9.20227 24.9369C9.36041 24.8308 9.49221 24.6899 9.58759 24.525L12.0001 20.375L14.4126 24.5625C14.5094 24.725 14.6418 24.8635 14.7999 24.9674C14.9579 25.0714 15.1375 25.1381 15.3251 25.1625H15.5001C15.8263 25.1645 16.1403 25.0389 16.3751 24.8125C16.4592 24.7366 16.5309 24.648 16.5876 24.55L18.4126 21.475H22.0001C22.2204 21.4759 22.4369 21.4185 22.6279 21.3088C22.8189 21.199 22.9775 21.0408 23.0876 20.85C23.2044 20.6556 23.2661 20.4331 23.2661 20.2062C23.2661 19.9794 23.2044 19.7569 23.0876 19.5625ZM8.48759 21.475L7.37509 19.6125C7.26555 19.4277 7.11023 19.2743 6.92412 19.167C6.73801 19.0597 6.5274 19.0022 6.31259 19H4.15009L5.93759 15.9C7.1685 17.0861 8.71986 17.8857 10.4001 18.2L8.48759 21.475ZM12.0001 15.8125C10.764 15.8125 9.55558 15.4459 8.52778 14.7592C7.49997 14.0724 6.69889 13.0963 6.22584 11.9543C5.7528 10.8122 5.62903 9.55557 5.87018 8.34319C6.11134 7.1308 6.7066 6.01716 7.58067 5.14308C8.45475 4.269 9.5684 3.67375 10.7808 3.43259C11.9932 3.19143 13.2498 3.31521 14.3919 3.78825C15.5339 4.2613 16.51 5.06238 17.1968 6.09019C17.8835 7.11799 18.2501 8.32637 18.2501 9.5625C18.2501 11.2201 17.5916 12.8098 16.4195 13.9819C15.2474 15.154 13.6577 15.8125 12.0001 15.8125ZM17.6876 19C17.4728 19.0022 17.2622 19.0597 17.0761 19.167C16.89 19.2743 16.7346 19.4277 16.6251 19.6125L15.5126 21.475L13.6126 18.1625C15.2869 17.8417 16.8326 17.0429 18.0626 15.8625L19.8501 18.9625L17.6876 19Z" fill="#FF9900"/>
</svg>
