<svg width="30" height="26" viewBox="0 0 30 26" fill="none" xmlns="http://www.w3.org/2000/svg">
<path d="M19.1125 11.1472L15.6375 14.1588C15.4294 14.1109 15.2153 14.0854 15 14.083C14.3369 14.083 13.7011 14.3113 13.2322 14.7176C12.7634 15.1239 12.5 15.675 12.5 16.2497C12.5028 16.4363 12.5322 16.6218 12.5875 16.8022L11.6125 17.6472C11.4953 17.7479 11.4023 17.8677 11.3389 17.9997C11.2754 18.1317 11.2427 18.2733 11.2427 18.4163C11.2427 18.5594 11.2754 18.701 11.3389 18.833C11.4023 18.965 11.4953 19.0848 11.6125 19.1855C11.7287 19.287 11.8669 19.3676 12.0193 19.4226C12.1716 19.4776 12.335 19.506 12.5 19.506C12.665 19.506 12.8284 19.4776 12.9807 19.4226C13.133 19.3676 13.2713 19.287 13.3875 19.1855L14.3625 18.3405C14.5706 18.3885 14.7847 18.4139 15 18.4163C15.663 18.4163 16.2989 18.1881 16.7677 17.7817C17.2366 17.3754 17.5 16.8243 17.5 16.2497C17.4972 16.0631 17.4678 15.8775 17.4125 15.6972L20.8875 12.6855C21.1229 12.4815 21.2551 12.2048 21.2551 11.9163C21.2551 11.6278 21.1229 11.3512 20.8875 11.1472C20.6521 10.9432 20.3329 10.8286 20 10.8286C19.6671 10.8286 19.3479 10.9432 19.1125 11.1472V11.1472ZM15 4.33301C13.3585 4.33301 11.733 4.61322 10.2164 5.15765C8.69986 5.70207 7.32187 6.50005 6.16114 7.50602C3.81694 9.53766 2.49998 12.2932 2.49998 15.1663C2.49382 17.312 3.22963 19.41 4.61248 21.1897C4.79813 21.4281 5.08548 21.5929 5.41133 21.6478C5.73717 21.7026 6.07482 21.6431 6.34998 21.4822C6.62514 21.3213 6.81528 21.0722 6.87858 20.7898C6.94187 20.5074 6.87313 20.2148 6.68748 19.9763C5.68062 18.6715 5.10158 17.1542 5.01217 15.5864C4.92276 14.0186 5.32635 12.4591 6.17983 11.0746C7.03332 9.6901 8.30466 8.53248 9.8581 7.72534C11.4115 6.91821 13.1888 6.49188 15 6.49188C16.8112 6.49188 18.5884 6.91821 20.1419 7.72534C21.6953 8.53248 22.9666 9.6901 23.8201 11.0746C24.6736 12.4591 25.0772 14.0186 24.9878 15.5864C24.8984 17.1542 24.3193 18.6715 23.3125 19.9763C23.2203 20.0944 23.156 20.227 23.1231 20.3666C23.0902 20.5062 23.0894 20.6501 23.1207 20.7899C23.1521 20.9298 23.215 21.063 23.3058 21.1818C23.3966 21.3005 23.5136 21.4026 23.65 21.4822C23.8569 21.6027 24.1007 21.6668 24.35 21.6663C24.5547 21.6666 24.7564 21.6233 24.9373 21.5402C25.1182 21.457 25.2728 21.3367 25.3875 21.1897C26.7703 19.41 27.5061 17.312 27.5 15.1663C27.5 12.2932 26.183 9.53766 23.8388 7.50602C21.4946 5.47437 18.3152 4.33301 15 4.33301V4.33301Z" fill="#EB0000"/>
</svg>
