<svg width="26" height="26" viewBox="0 0 26 26" fill="none" xmlns="http://www.w3.org/2000/svg">
<path d="M12.9927 0.5C10.5204 0.5 8.10367 1.23311 6.04805 2.60663C3.99244 3.98015 2.39028 5.93238 1.44419 8.21646C0.498092 10.5005 0.25055 13.0139 0.732865 15.4386C1.21518 17.8634 2.40569 20.0907 4.15385 21.8388C5.902 23.587 8.12929 24.7775 10.5541 25.2598C12.9788 25.7421 15.4921 25.4946 17.7762 24.5485C20.0603 23.6024 22.0125 22.0002 23.386 19.9446C24.7596 17.889 25.4927 15.4723 25.4927 13C25.4928 11.3584 25.1696 9.73293 24.5415 8.2163C23.9133 6.69967 22.9926 5.32162 21.8318 4.16086C20.6711 3.0001 19.293 2.07936 17.7764 1.45123C16.2598 0.823093 14.6342 0.499864 12.9927 0.5ZM16.9671 19.4406C16.9203 19.5573 16.8491 19.6626 16.7583 19.7495C16.6675 19.8364 16.5591 19.9028 16.4405 19.9445C16.3219 19.9861 16.1958 20.0018 16.0706 19.9907C15.9454 19.9796 15.824 19.9418 15.7146 19.88L12.3212 17.2432L10.1433 19.2525C10.0928 19.2898 10.0337 19.3139 9.97143 19.3224C9.90917 19.3309 9.84578 19.3236 9.78708 19.3012L10.2046 15.5656L10.2179 15.5762L10.2265 15.5025C10.2265 15.5025 16.3327 9.94306 16.5815 9.7062C16.8333 9.46995 16.7502 9.4187 16.7502 9.4187C16.7646 9.13054 16.2983 9.4187 16.2983 9.4187L8.20768 14.6238L4.83832 13.4763C4.83832 13.4763 4.32082 13.2906 4.27207 12.8825C4.22082 12.4775 4.85518 12.2575 4.85518 12.2575L18.2514 6.93561C18.2514 6.93561 19.3527 6.44496 19.3527 7.2575L16.9671 19.4406Z" fill="white"/>
</svg>
