<svg width="26" height="26" viewBox="0 0 26 26" fill="none" xmlns="http://www.w3.org/2000/svg">
<path d="M19.3551 6.18773L15.8051 2.63773C15.6889 2.52057 15.5507 2.42758 15.3983 2.36412C15.246 2.30066 15.0826 2.26798 14.9176 2.26798C14.7526 2.26798 14.5892 2.30066 14.4369 2.36412C14.2846 2.42758 14.1463 2.52057 14.0301 2.63773C13.7973 2.87194 13.6666 3.18875 13.6666 3.51898C13.6666 3.84921 13.7973 4.16603 14.0301 4.40023L16.6801 7.05023L6.55512 17.1752L3.90511 14.5252C3.67091 14.2924 3.3541 14.1617 3.02386 14.1617C2.69363 14.1617 2.37682 14.2924 2.14261 14.5252C2.02545 14.6414 1.93246 14.7797 1.869 14.932C1.80554 15.0843 1.77287 15.2477 1.77287 15.4127C1.77287 15.5777 1.80554 15.7411 1.869 15.8935C1.93246 16.0458 2.02545 16.184 2.14261 16.3002L5.65512 19.8127L9.16762 23.3252C9.28338 23.4433 9.42144 23.5373 9.57378 23.6017C9.72613 23.666 9.88973 23.6995 10.0551 23.7002C10.3034 23.7017 10.5465 23.6291 10.7534 23.4919C10.9603 23.3546 11.1216 23.1589 11.2168 22.9296C11.312 22.7003 11.3368 22.4478 11.288 22.2044C11.2391 21.9609 11.1189 21.7376 10.9426 21.5627L8.33012 18.9502L18.4551 8.82523L21.1051 11.4752C21.2217 11.591 21.3599 11.6826 21.5118 11.7449C21.6638 11.8072 21.8265 11.839 21.9908 11.8384C22.155 11.8378 22.3176 11.8049 22.4691 11.7415C22.6206 11.6781 22.7581 11.5855 22.8739 11.469C22.9896 11.3524 23.0812 11.2142 23.1435 11.0623C23.2059 10.9103 23.2376 10.7476 23.2371 10.5833C23.2365 10.4191 23.2036 10.2565 23.1402 10.105C23.0768 9.95351 22.9842 9.81596 22.8676 9.70023L19.3551 6.18773ZM2.14261 19.8252C1.90724 19.5899 1.58799 19.4576 1.25511 19.4576C0.922238 19.4576 0.602994 19.5899 0.367615 19.8252C0.132235 20.0606 2.48013e-09 20.3799 0 20.7127C-2.48013e-09 21.0456 0.132235 21.3649 0.367615 21.6002L3.90511 25.1377C4.02191 25.2536 4.16044 25.3452 4.31273 25.4074C4.46503 25.4697 4.62811 25.5012 4.79261 25.5002C4.95712 25.5012 5.1202 25.4697 5.2725 25.4074C5.4248 25.3452 5.56331 25.2536 5.68012 25.1377C5.79728 25.0215 5.89027 24.8833 5.95373 24.731C6.01719 24.5786 6.04986 24.4152 6.04986 24.2502C6.04986 24.0852 6.01719 23.9218 5.95373 23.7695C5.89027 23.6172 5.79728 23.4789 5.68012 23.3627L2.14261 19.8252ZM24.6426 4.40023L21.1051 0.862732C20.9886 0.746184 20.8502 0.653732 20.6979 0.590657C20.5457 0.527582 20.3824 0.495117 20.2176 0.495117C20.0528 0.495117 19.8896 0.527582 19.7373 0.590657C19.585 0.653732 19.4467 0.746184 19.3301 0.862732C19.2136 0.97928 19.1211 1.11764 19.058 1.26992C18.995 1.4222 18.9625 1.58541 18.9625 1.75023C18.9625 1.91506 18.995 2.07827 19.058 2.23054C19.1211 2.38282 19.2136 2.52118 19.3301 2.63773L22.8676 6.17523C22.9838 6.29239 23.1221 6.38539 23.2744 6.44885C23.4267 6.51231 23.5901 6.54498 23.7551 6.54498C23.9201 6.54498 24.0835 6.51231 24.2358 6.44885C24.3882 6.38539 24.5264 6.29239 24.6426 6.17523C24.7598 6.05903 24.8528 5.92078 24.9162 5.76845C24.9797 5.61613 25.0124 5.45275 25.0124 5.28773C25.0124 5.12272 24.9797 4.95934 24.9162 4.80701C24.8528 4.65469 24.7598 4.51644 24.6426 4.40023Z" fill="#008CDB"/>
</svg>
